<svg id="visual" viewBox="0 0 64 64" width="64" height="64" xmlns="http://www.w3.org/2000/svg" xmlns:xlink="http://www.w3.org/1999/xlink" version="1.1"><rect x="0" y="0" width="64" height="64" fill="#140021"></rect><path d="M0 39L9 39L9 36L18 36L18 29L27 29L27 28L37 28L37 27L46 27L46 27L55 27L55 37L64 37L64 29L64 65L64 65L55 65L55 65L46 65L46 65L37 65L37 65L27 65L27 65L18 65L18 65L9 65L9 65L0 65Z" fill="#560090"></path><path d="M0 40L9 40L9 40L18 40L18 43L27 43L27 36L37 36L37 48L46 48L46 39L55 39L55 37L64 37L64 47L64 65L64 65L55 65L55 65L46 65L46 65L37 65L37 65L27 65L27 65L18 65L18 65L9 65L9 65L0 65Z" fill="#7700c6"></path><path d="M0 57L9 57L9 47L18 47L18 50L27 50L27 50L37 50L37 48L46 48L46 48L55 48L55 56L64 56L64 51L64 65L64 65L55 65L55 65L46 65L46 65L37 65L37 65L27 65L27 65L18 65L18 65L9 65L9 65L0 65Z" fill="#9900ff"></path></svg>